<svg id="Layer_1" data-name="Layer 1" xmlns="http://www.w3.org/2000/svg" viewBox="0 0 32 32"><defs><style>.cls-1{fill:#0072c6;}.cls-2{fill:none;stroke:#fff;stroke-miterlimit:10;}.cls-3{fill:#fff;}</style></defs><title>1</title><rect class="cls-1" width="32" height="32"/><line class="cls-2" x1="9.25" y1="9.25" x2="22.75" y2="22.75"/><circle class="cls-3" cx="8" cy="8" r="4.63"/><path class="cls-1" d="M8,3.75A4.25,4.25,0,1,1,3.75,8,4.26,4.26,0,0,1,8,3.75M8,3a5,5,0,1,0,5,5A5,5,0,0,0,8,3Z"/><path class="cls-1" d="M8.71,10.28h-1V7.21l0-.48a3.75,3.75,0,0,1-.34.32l-.52.42-.47-.58L7.92,5.72h.79Z"/><circle class="cls-3" cx="24" cy="24" r="4.63"/><path class="cls-1" d="M24,19.75A4.25,4.25,0,1,1,19.75,24,4.26,4.26,0,0,1,24,19.75M24,19a5,5,0,1,0,5,5,5,5,0,0,0-5-5Z"/><path class="cls-1" d="M26,22.41a1.35,1.35,0,0,1-.33.92,1.74,1.74,0,0,1-.91.52v0a1.88,1.88,0,0,1,1.05.42,1.2,1.2,0,0,1,.36.91,1.53,1.53,0,0,1-.6,1.29,2.79,2.79,0,0,1-1.72.47,4.1,4.1,0,0,1-1.66-.32v-1a4,4,0,0,0,.73.28,3.19,3.19,0,0,0,.8.1,1.6,1.6,0,0,0,.89-.2.76.76,0,0,0,.28-.66.58.58,0,0,0-.33-.57,2.32,2.32,0,0,0-1.05-.17H23.1v-.93h.45a2,2,0,0,0,1-.18.63.63,0,0,0,.31-.6c0-.43-.27-.65-.81-.65a2,2,0,0,0-.58.09,2.49,2.49,0,0,0-.65.33l-.56-.84A3.1,3.1,0,0,1,24.1,21a2.41,2.41,0,0,1,1.41.37A1.14,1.14,0,0,1,26,22.41Z"/><circle class="cls-3" cx="16" cy="16" r="4.63"/><path class="cls-1" d="M16,11.75A4.25,4.25,0,1,1,11.75,16,4.26,4.26,0,0,1,16,11.75M16,11a5,5,0,1,0,5,5,5,5,0,0,0-5-5Z"/><path class="cls-1" d="M18,18.73H14.13v-.82l1.4-1.41c.41-.43.68-.72.81-.88a2.58,2.58,0,0,0,.27-.46,1.06,1.06,0,0,0,.08-.43.64.64,0,0,0-.18-.5.71.71,0,0,0-.49-.16,1.52,1.52,0,0,0-.63.14,3.12,3.12,0,0,0-.64.43l-.64-.76a5.1,5.1,0,0,1,.69-.5,2.41,2.41,0,0,1,.59-.22,3.08,3.08,0,0,1,.71-.08,2.22,2.22,0,0,1,.92.19,1.49,1.49,0,0,1,.62.54,1.37,1.37,0,0,1,.22.78,1.88,1.88,0,0,1-.13.72,2.56,2.56,0,0,1-.42.69,10,10,0,0,1-1,1l-.72.67v.06H18Z"/></svg>