<svg id="Layer_1" data-name="Layer 1" xmlns="http://www.w3.org/2000/svg" viewBox="0 0 32 32"><defs><style>.cls-1{fill:#0072c6;}.cls-2{fill:#fff;}</style></defs><title>1</title><rect class="cls-1" width="32" height="32"/><rect class="cls-2" x="14.37" y="19.01" width="13.27" height="1.33"/><rect class="cls-2" x="14.37" y="21.66" width="13.27" height="1.33"/><polygon class="cls-2" points="11.75 17.27 8.63 21.32 6.67 19.35 5.83 20.19 7.9 22.26 8.74 23.11 9.47 22.16 12.69 17.99 11.75 17.27"/><polygon class="cls-2" points="10.37 21.95 10.37 23.73 5.37 23.73 5.37 18.73 9.81 18.73 10.59 17.73 4.37 17.73 4.37 24.73 11.37 24.73 11.37 20.65 10.37 21.95"/><rect class="cls-2" x="14.37" y="8.01" width="13.27" height="1.33"/><rect class="cls-2" x="14.37" y="10.66" width="13.27" height="1.33"/><polygon class="cls-2" points="11.75 6.27 8.63 10.32 6.67 8.35 5.83 9.19 7.9 11.26 8.74 12.11 9.47 11.16 12.69 6.99 11.75 6.27"/><polygon class="cls-2" points="10.37 10.95 10.37 12.73 5.37 12.73 5.37 7.73 9.81 7.73 10.59 6.73 4.37 6.73 4.37 13.73 11.37 13.73 11.37 9.65 10.37 10.95"/></svg>